<?xml version="1.0" standalone="no"?>
<!DOCTYPE svg PUBLIC "-//W3C//DTD SVG 20010904//EN"
 "http://www.w3.org/TR/2001/REC-SVG-20010904/DTD/svg10.dtd">
<svg version="1.0" xmlns="http://www.w3.org/2000/svg"
 width="128.000000pt" height="128.000000pt" viewBox="0 0 128.000000 128.000000"
 preserveAspectRatio="xMidYMid meet">
<metadata>
Created by potrace 1.14, written by Peter Selinger 2001-2017
</metadata>
<g transform="translate(0.000000,128.000000) scale(0.100000,-0.100000)"
fill="#000000" stroke="none">
<path d="M615 1271 c-11 -5 -33 -6 -49 -3 -52 9 -61 -42 -21 -123 32 -64 31
-71 -1 -46 -18 14 -42 21 -73 21 -25 1 -63 7 -83 14 -38 14 -62 9 -50 -10 14
-22 58 -37 107 -39 77 -2 130 -38 63 -43 -75 -6 -169 -75 -140 -104 7 -7 17
-4 34 13 28 30 62 47 107 54 34 6 34 5 -45 -73 -123 -123 -196 -267 -196 -388
0 -45 -7 -51 -42 -38 -9 3 -16 12 -16 19 0 30 -31 45 -94 45 -98 0 -96 7 -96
-271 0 -179 3 -239 13 -253 10 -14 30 -19 77 -22 59 -2 65 -1 91 27 l27 29 94
-37 93 -38 192 -3 c172 -3 196 -2 235 16 69 30 398 243 409 265 18 32 2 85
-30 102 -26 13 -71 12 -93 -1 -11 -7 -10 -1 3 33 18 47 19 155 3 219 -30 113
-112 241 -176 274 -16 7 -28 21 -28 30 0 9 -15 28 -32 42 -20 16 -38 43 -46
68 -11 38 -10 44 12 83 28 47 37 94 25 119 -9 17 -64 22 -181 17 -13 0 -34 2
-48 5 -14 3 -34 1 -45 -3z"/>
</g>
</svg>
